<svg id="Group_137913" data-name="Group 137913" xmlns="http://www.w3.org/2000/svg" width="77.379" height="145" viewBox="0 0 77.379 145">
  <g id="Group_128517" data-name="Group 128517" transform="translate(0)">
    <path id="Path_181748" data-name="Path 181748" d="M322.5,456.879a3,3,0,0,1,4.242,0l32.329,32.328a4,4,0,0,0,2.828,1.172h15.4a5.684,5.684,0,0,0,3.926-2.042,8,8,0,1,1-.453,10.57,5.823,5.823,0,0,0-4.275-2.528H366a4,4,0,0,0-4,4v58.186a5,5,0,0,0,1.464,3.536l17.628,17.628c1.251,1.251,3.177,1.422,4.933,1.209A8,8,0,1,1,379,588.879h0a5.691,5.691,0,0,0-1.349-4.106l-18.429-18.43A11,11,0,0,1,356,558.565V496.278a4,4,0,0,0-1.172-2.828L322.5,461.121a3,3,0,0,1,0-4.242Z" transform="translate(-321.621 -456)" fill="rgba(17,10,43,0.25)" fill-rule="evenodd"/>
  </g>
  <path id="Path_181749" data-name="Path 181749" d="M382,494a5,5,0,0,1,5-5h0a5,5,0,0,1,5,5h0a5,5,0,0,1-5,5h0a5,5,0,0,1-5-5Z" transform="translate(-321.621 -456)" fill="#635bff"/>
  <path id="Path_181752" data-name="Path 181752" d="M375,589a12,12,0,0,1,12-12h0a12,12,0,0,1,12,12h0a12,12,0,0,1-12,12h0a12,12,0,0,1-12-12Z" transform="translate(-321.621 -456)" fill="#fff" opacity="0.359"/>
  <g id="Group_128520" data-name="Group 128520" transform="translate(34.379 68)">
    <path id="Path_181758" data-name="Path 181758" d="M356,527a3,3,0,0,1,3-3h0a3,3,0,0,1,3,3v25a3,3,0,0,1-3,3h0a3,3,0,0,1-3-3Z" transform="translate(-356 -524)" fill="#ff7272"/>
  </g>
  <path id="Path_181761" data-name="Path 181761" d="M357,530a2,2,0,0,1,2-2h0a2,2,0,0,1,2,2v16a2,2,0,0,1-2,2h0a2,2,0,0,1-2-2Z" transform="translate(-321.621 -454)" fill="#fff"/>
  <path id="Path_181756" data-name="Path 181756" d="M382,589a5,5,0,0,1,5-5h0a5,5,0,0,1,5,5h0a5,5,0,0,1-5,5h0a5,5,0,0,1-5-5Z" transform="translate(-321.621 -456)" fill="#f8ce62"/>
</svg>
