<svg xmlns="http://www.w3.org/2000/svg" width="309.085" height="481.056" viewBox="0 0 309.085 481.056">
  <g id="Group_137907" data-name="Group 137907" transform="translate(-42.993)">
    <path id="Path_181427" data-name="Path 181427" d="M459.777,482.725C457.125,467.952,445.027,456,430.018,456H349.887A27.887,27.887,0,0,0,322,483.887V906.845a27.887,27.887,0,0,0,27.887,27.887H600.873a27.887,27.887,0,0,0,27.887-27.887V663.1c0-14.42-11.072-26.241-25.127-29.468A189.627,189.627,0,0,1,459.777,482.725Z" transform="translate(-277.845 -454.838)" fill="#191934" fill-rule="evenodd"/>
    <path id="Path_181428" data-name="Path 181428" d="M459.777,482.725C457.125,467.952,445.027,456,430.018,456H349.887A27.887,27.887,0,0,0,322,483.887V906.845a27.887,27.887,0,0,0,27.887,27.887H600.873a27.887,27.887,0,0,0,27.887-27.887V663.1c0-14.42-11.072-26.241-25.127-29.468A189.627,189.627,0,0,1,459.777,482.725Z" transform="translate(-277.845 -454.838)" fill="#1e1f3f" fill-rule="evenodd"/>
    <path id="Path_181430" data-name="Path 181430" d="M603.8,633.791l-.26,1.133ZM350.049,457.324H430.18V455H350.049ZM323.324,907.007V484.049H321V907.007Zm277.711,26.725H350.049v2.324H601.035Zm26.725-270.473V907.007h2.324V663.259Zm-23.7-30.6A188.466,188.466,0,0,1,461.083,482.682l-2.287.41a190.787,190.787,0,0,0,144.74,151.833Zm26.028,30.6c0-15.052-11.541-27.274-26.028-30.6l-.521,2.265c13.621,3.127,24.225,14.547,24.225,28.335Zm-29.049,272.8a29.049,29.049,0,0,0,29.049-29.049h-2.324a26.725,26.725,0,0,1-26.725,26.725ZM321,907.007a29.05,29.05,0,0,0,29.049,29.049v-2.324a26.725,26.725,0,0,1-26.725-26.725ZM430.18,457.324c14.35,0,26.044,11.448,28.616,25.768l2.287-.41C458.349,467.456,445.849,455,430.18,455ZM350.049,455A29.05,29.05,0,0,0,321,484.049h2.324a26.725,26.725,0,0,1,26.725-26.725Z" transform="translate(-278.007 -455)" fill="rgba(255,255,255,0.05)"/>
  </g>
</svg>
