<svg id="MERAH" xmlns="http://www.w3.org/2000/svg" width="15.373" height="19.687" viewBox="0 0 15.373 19.687">
  <path id="Path_184364" data-name="Path 184364" d="M10.28,8.676V23.005a2.676,2.676,0,0,0,1.5,2.409,2.708,2.708,0,0,0,1.178.273,2.676,2.676,0,0,0,1.649-.578l10.427-8.19a1.6,1.6,0,0,0-.027-2.548L14.562,6.535A2.676,2.676,0,0,0,10.28,8.676Z" transform="translate(-10.28 -6)" fill="#3cc3ff"/>
  <path id="Path_184365" data-name="Path 184365" d="M10.28,24v7.371a2.676,2.676,0,0,0,1.5,2.409,2.709,2.709,0,0,0,1.178.273,2.676,2.676,0,0,0,1.649-.578l10.427-8.19A1.606,1.606,0,0,0,25.653,24Z" transform="translate(-10.28 -14.365)" fill="#0075d9"/>
</svg>
